<?xml version="1.0" encoding="utf-8"?>
<!-- Generator: Adobe Illustrator 22.1.0, SVG Export Plug-In . SVG Version: 6.00 Build 0)  -->
<svg version="1.1" id="Capa_1" xmlns="http://www.w3.org/2000/svg" xmlns:xlink="http://www.w3.org/1999/xlink" x="0px" y="0px"
	 viewBox="0 0 354.4 369.7" style="enable-background:new 0 0 354.4 369.7;" xml:space="preserve">
<style type="text/css">
	.st0{opacity:0.9;}
	.st1{opacity:0.85;fill:url(#SVGID_1_);}
	.st2{opacity:0.75;fill:url(#SVGID_2_);}
	.st3{fill:url(#SVGID_3_);}
	.st4{opacity:0.5;fill:url(#SVGID_4_);}
</style>
<g class="st0">
	
		<linearGradient id="SVGID_1_" gradientUnits="userSpaceOnUse" x1="-3745.8347" y1="-1384.8271" x2="-3253.3425" y2="-1384.8271" gradientTransform="matrix(-0.7071 0.7071 -0.7071 -0.7071 -3268.2095 1679.4977)">
		<stop  offset="2.384186e-08" style="stop-color:#7F7FD5"/>
		<stop  offset="1" style="stop-color:#64B3F4"/>
	</linearGradient>
	<path class="st1" d="M19.2,286c-22.1,22.1-25.6,54.4-7.8,72.2c17.8,17.8,50.1,14.3,72.2-7.8c0.6-0.6,1.1-1.1,1.7-1.7l194.7-194.7
		c3.2-3.2,3.7-8,1.1-10.6c-2.1-2.1-5.5-2.2-8.4-0.5l20.8-20.8c1.1-1.1,1.5-2.7,0.8-3.4c-0.7-0.7-2.2-0.4-3.4,0.8l-32.8,32.8
		c-1,0.6-2.1,0.7-2.7,0.1c-0.6-0.6-0.5-1.9,0.4-3l81.4-81.4c3.3-3.3,3.9-8.2,1.2-10.9c-2.7-2.7-7.6-2.2-10.9,1.2l-26.4,26.4
		c-3.4,3.4-8.5,4-11.3,1.2c-2.5-2.5-2.3-6.8,0.3-10.2l48.4-48.4c1.1-1.1,1.5-2.7,0.8-3.4c-0.7-0.7-2.2-0.4-3.4,0.8l17.2-17.2
		c1.1-1.1,1.5-2.7,0.8-3.4c-0.7-0.7-2.2-0.4-3.4,0.8l-7.7,7.7c3.3-3.3,3.9-8.2,1.2-10.9c-2.7-2.7-7.6-2.2-10.9,1.2L225.4,110.7
		c-1.2,0.8-2.6,0.9-3.3,0.2c-0.7-0.7-0.6-2,0.2-3.3l45.3-45.3c1.1-1.1,1.5-2.7,0.8-3.4c-0.7-0.7-2.2-0.4-3.4,0.8L218,106.8
		c3.3-3.3,3.9-8.2,1.2-10.9c-2.7-2.7-7.6-2.2-10.9,1.2L21.4,283.9C20.7,284.6,19.9,285.3,19.2,286z"/>
	
		<linearGradient id="SVGID_2_" gradientUnits="userSpaceOnUse" x1="-3668.2751" y1="4100.5898" x2="-3272.127" y2="4100.5898" gradientTransform="matrix(-0.7071 0.7071 0.7071 0.7071 -5188.5439 -240.8366)">
		<stop  offset="0" style="stop-color:#3494E6"/>
		<stop  offset="1" style="stop-color:#6DD5FA"/>
	</linearGradient>
	<path class="st2" d="M82.9,338.7c-17.8,17.8-43.8,20.6-58.1,6.2s-11.5-40.3,6.2-58.1c0.5-0.5,0.9-0.9,1.4-1.3L189,128.9
		c2.6-2.6,6.4-3,8.5-0.9c1.7,1.7,1.7,4.4,0.4,6.8l16.8-16.8c0.9-0.9,2.1-1.2,2.7-0.6c0.6,0.6,0.3,1.8-0.6,2.7l-26.4,26.4
		c-0.5,0.8-0.6,1.7-0.1,2.2c0.5,0.5,1.5,0.4,2.4-0.3l65.5-65.5c2.7-2.7,6.6-3.1,8.8-0.9c2.2,2.2,1.7,6.1-0.9,8.8l-21.2,21.3
		c-2.8,2.8-3.2,6.8-1,9.1c2,2,5.5,1.9,8.2-0.2l38.9-38.9c0.9-0.9,2.1-1.2,2.7-0.6c0.6,0.6,0.3,1.8-0.6,2.7l13.8-13.8
		c0.9-0.9,2.1-1.2,2.7-0.6c0.6,0.6,0.3,1.8-0.6,2.7l-6.2,6.2c2.7-2.7,6.6-3.1,8.8-0.9c2.2,2.2,1.7,6.1-0.9,8.8l-86.7,86.7
		c-0.6,1-0.7,2.1-0.2,2.6c0.6,0.6,1.6,0.5,2.6-0.2l36.5-36.5c0.9-0.9,2.1-1.2,2.7-0.6c0.6,0.6,0.3,1.8-0.6,2.7L227,178.9
		c2.7-2.7,6.6-3.1,8.8-0.9c2.2,2.2,1.7,6.1-0.9,8.8L84.5,337C84,337.6,83.4,338.2,82.9,338.7z"/>
	
		<linearGradient id="SVGID_3_" gradientUnits="userSpaceOnUse" x1="-3565.1907" y1="-1384.8271" x2="-3294.1182" y2="-1384.8271" gradientTransform="matrix(-0.7071 0.7071 -0.7071 -0.7071 -3268.2095 1679.4977)">
		<stop  offset="0" style="stop-color:#82E7B4;stop-opacity:0.2"/>
		<stop  offset="0.274" style="stop-color:#81E6B7;stop-opacity:0.4192"/>
		<stop  offset="0.4981" style="stop-color:#7EE4C1;stop-opacity:0.5985"/>
		<stop  offset="0.7045" style="stop-color:#79DFD2;stop-opacity:0.7636"/>
		<stop  offset="0.8991" style="stop-color:#72D9EA;stop-opacity:0.9193"/>
		<stop  offset="1" style="stop-color:#6DD5FA"/>
	</linearGradient>
	<path class="st3" d="M44.6,289.7c-12.2,12.2-14.1,30-4.3,39.8s27.6,7.9,39.8-4.3c0.3-0.3,0.6-0.6,0.9-1L188.1,217
		c1.8-1.8,2.1-4.4,0.6-5.8c-1.1-1.1-3-1.2-4.6-0.3l11.5-11.5c0.6-0.6,0.8-1.5,0.4-1.8c-0.4-0.4-1.2-0.2-1.8,0.4l-18,18
		c-0.6,0.3-1.2,0.4-1.5,0.1c-0.4-0.4-0.3-1.1,0.2-1.7l44.8-44.8c1.8-1.8,2.1-4.5,0.6-6s-4.2-1.2-6,0.6l-14.6,14.5
		c-1.9,1.9-4.7,2.2-6.2,0.7c-1.4-1.4-1.3-3.8,0.1-5.6l26.6-26.6c0.6-0.6,0.8-1.5,0.4-1.8c-0.4-0.4-1.2-0.2-1.8,0.4l9.5-9.5
		c0.6-0.6,0.8-1.5,0.4-1.8c-0.4-0.4-1.2-0.2-1.8,0.4l-4.2,4.2c1.8-1.8,2.1-4.5,0.6-6c-1.5-1.5-4.2-1.2-6,0.6l-59.3,59.3
		c-0.7,0.4-1.4,0.5-1.8,0.1c-0.4-0.4-0.3-1.1,0.1-1.8l25-25c0.6-0.6,0.8-1.5,0.4-1.8c-0.4-0.4-1.2-0.2-1.8,0.4L154,191
		c1.8-1.8,2.1-4.5,0.6-6c-1.5-1.5-4.2-1.2-6,0.6L45.8,288.5C45.4,288.9,45,289.3,44.6,289.7z"/>
	
		<linearGradient id="SVGID_4_" gradientUnits="userSpaceOnUse" x1="-3745.8347" y1="-1384.8271" x2="-3253.3425" y2="-1384.8271" gradientTransform="matrix(-0.7071 0.7071 -0.7071 -0.7071 -3268.2095 1679.4977)">
		<stop  offset="0" style="stop-color:#FFFFFF;stop-opacity:0"/>
		<stop  offset="1" style="stop-color:#8360C3"/>
	</linearGradient>
	<path class="st4" d="M19.2,286c-22.1,22.1-25.6,54.4-7.8,72.2c17.8,17.8,50.1,14.3,72.2-7.8c0.6-0.6,1.1-1.1,1.7-1.7l194.7-194.7
		c3.2-3.2,3.7-8,1.1-10.6c-2.1-2.1-5.5-2.2-8.4-0.5l20.8-20.8c1.1-1.1,1.5-2.7,0.8-3.4c-0.7-0.7-2.2-0.4-3.4,0.8l-32.8,32.8
		c-1,0.6-2.1,0.7-2.7,0.1c-0.6-0.6-0.5-1.9,0.4-3l81.4-81.4c3.3-3.3,3.9-8.2,1.2-10.9c-2.7-2.7-7.6-2.2-10.9,1.2l-26.4,26.4
		c-3.4,3.4-8.5,4-11.3,1.2c-2.5-2.5-2.3-6.8,0.3-10.2l48.4-48.4c1.1-1.1,1.5-2.7,0.8-3.4c-0.7-0.7-2.2-0.4-3.4,0.8l17.2-17.2
		c1.1-1.1,1.5-2.7,0.8-3.4c-0.7-0.7-2.2-0.4-3.4,0.8l-7.7,7.7c3.3-3.3,3.9-8.2,1.2-10.9c-2.7-2.7-7.6-2.2-10.9,1.2L225.4,110.7
		c-1.2,0.8-2.6,0.9-3.3,0.2c-0.7-0.7-0.6-2,0.2-3.3l45.3-45.3c1.1-1.1,1.5-2.7,0.8-3.4c-0.7-0.7-2.2-0.4-3.4,0.8L218,106.8
		c3.3-3.3,3.9-8.2,1.2-10.9c-2.7-2.7-7.6-2.2-10.9,1.2L21.4,283.9C20.7,284.6,19.9,285.3,19.2,286z"/>
</g>
</svg>
