<?xml version="1.0" encoding="utf-8"?>
<!-- Generator: Adobe Illustrator 22.1.0, SVG Export Plug-In . SVG Version: 6.00 Build 0)  -->
<svg version="1.1" id="Capa_1" xmlns="http://www.w3.org/2000/svg" xmlns:xlink="http://www.w3.org/1999/xlink" x="0px" y="0px"
	 viewBox="0 0 1372.4 614" style="enable-background:new 0 0 1372.4 614;" xml:space="preserve">
<style type="text/css">
	.st0{clip-path:url(#SVGID_2_);}
	.st1{clip-path:url(#SVGID_2_);fill:url(#SVGID_5_);}
</style>
<g>
	<defs>
		<rect id="SVGID_1_" x="-4.6" y="-11.1" width="1544" height="664"/>
	</defs>
	<clipPath id="SVGID_2_">
		<use xlink:href="#SVGID_1_"  style="overflow:visible;"/>
	</clipPath>
	<g class="st0">
		<g>
			<defs>
				
					<rect id="SVGID_3_" x="670.9" y="263.4" transform="matrix(-1 -4.488422e-11 4.488422e-11 -1 2420.2751 870.0521)" width="1078.6" height="343.2"/>
			</defs>
			<clipPath id="SVGID_4_">
				<use xlink:href="#SVGID_3_"  style="overflow:visible;"/>
			</clipPath>
		</g>
	</g>
	<linearGradient id="SVGID_5_" gradientUnits="userSpaceOnUse" x1="686.3969" y1="-4.3196" x2="686.3969" y2="824.8278">
		<stop  offset="2.119276e-07" style="stop-color:#C2E59C"/>
		<stop  offset="1" style="stop-color:#64B3F4"/>
	</linearGradient>
	<path class="st1" d="M28.2,690.8c63.3,6.8,95.3,54.6,198.3,4.2c76.8-37.6,106.8-3.5,143.6,18.4c43.2,19.7,76.2,64.6,158.5,28.9
		c101.7-44.1,124,19.9,186.8,30l0-0.1c13.6-3.4,27.6-6.8,43.8-5.1c63.3,6.8,95.3,54.6,198.3,4.2c76.8-37.6,106.8-3.5,143.6,18.4
		c43.2,19.7,76.2,64.6,158.5,28.9c49.4-21.4,80-17.3,105.7-6.3c0,0,31.4-326.3-36.1-527.8c-17.8-53.1-41.8-104.7-74.7-150.2
		c-52-71.9-128.7-127-219.2-133.7C921.4-7.7,830.4,62.6,759.1,144.3c-49,56.1-90.9,111.4-154.4,152.1
		c-66.2,42.4-158.7,50-225.8,34.6c-57.5-13.2-117.9-21.5-176.5-9.3c-50.7,10.6-99.9,44.6-133.3,84.5C34.6,447.5,11.2,502.2,0,554.6
		v137.7C8.9,690.6,18.1,689.7,28.2,690.8z"/>
</g>
</svg>
