<?xml version="1.0" encoding="utf-8"?>
<!-- Generator: Adobe Illustrator 22.1.0, SVG Export Plug-In . SVG Version: 6.00 Build 0)  -->
<svg version="1.1" id="Capa_1" xmlns="http://www.w3.org/2000/svg" xmlns:xlink="http://www.w3.org/1999/xlink" x="0px" y="0px"
	 viewBox="0 0 2125.9 343.2" style="enable-background:new 0 0 2125.9 343.2;" xml:space="preserve">
<style type="text/css">
	.st0{fill:url(#SVGID_3_);}
	.st1{fill:url(#SVGID_4_);}
	.st2{fill:url(#SVGID_5_);}
	.st3{fill:url(#SVGID_6_);}
	.st4{fill:url(#SVGID_7_);}
	.st5{fill:url(#SVGID_8_);}
	.st6{fill:url(#SVGID_9_);}
	.st7{fill:url(#SVGID_10_);}
	.st8{fill:url(#SVGID_11_);}
	.st9{fill:url(#SVGID_12_);}
	.st10{fill:url(#SVGID_13_);}
	.st11{fill:url(#SVGID_14_);}
	.st12{fill:url(#SVGID_15_);}
	.st13{fill:url(#SVGID_16_);}
	.st14{fill:url(#SVGID_17_);}
	.st15{fill:url(#SVGID_18_);}
	.st16{fill:url(#SVGID_19_);}
	.st17{fill:url(#SVGID_20_);}
	.st18{fill:url(#SVGID_21_);}
	.st19{fill:url(#SVGID_22_);}
	.st20{fill:url(#SVGID_23_);}
	.st21{fill:url(#SVGID_24_);}
	.st22{fill:url(#SVGID_25_);}
	.st23{fill:url(#SVGID_26_);}
	.st24{fill:url(#SVGID_27_);}
	.st25{fill:url(#SVGID_28_);}
	.st26{fill:url(#SVGID_29_);}
</style>
<g>
	<g>
		<defs>
			
				<rect id="SVGID_1_" x="1047.4" y="0" transform="matrix(-1 -4.488422e-11 4.488422e-11 -1 3173.3049 343.1685)" width="1078.6" height="343.2"/>
		</defs>
		<clipPath id="SVGID_2_">
			<use xlink:href="#SVGID_1_"  style="overflow:visible;"/>
		</clipPath>
	</g>
</g>
<g>
	<g>
		<g>
			
				<linearGradient id="SVGID_3_" gradientUnits="userSpaceOnUse" x1="2177.1897" y1="808.1425" x2="3527.1646" y2="-541.8324" gradientTransform="matrix(1 0 0 1 -1597.1052 0)">
				<stop  offset="0" style="stop-color:#2980B9"/>
				<stop  offset="1" style="stop-color:#6DD5FA"/>
			</linearGradient>
			<path class="st0" d="M1977.1,267.3h-133c10.3,0,18.6-6.4,18.6-14.2c0-7.9-8.3-14.2-18.6-14.2h-49.3c-13,0-23.5-10.5-23.5-23.5
				c0-13,10.5-23.5,23.5-23.5H1917c13,0,23.5-10.5,23.5-23.5c0-13-10.5-23.5-23.5-23.5h-102.6c10.3,0,18.6-6.4,18.6-14.2
				c0-7.9-8.3-14.2-18.6-14.2h151.1c10.3,0,18.6-6.4,18.6-14.2c0-7.9-8.3-14.2-18.6-14.2h-186.8c-4.5,0-8.1-2.8-8.1-6.2
				s3.6-6.2,8.1-6.2h131.4c13,0,23.5-10.5,23.5-23.5c0-13-10.5-23.5-23.5-23.5h-66c10.3,0,18.6-6.4,18.6-14.2S1854.3,0,1844,0
				L517.7,0c-10.3,0-18.6,6.4-18.6,14.2s8.3,14.2,18.6,14.2h-61.2c-13,0-23.5,10.5-23.5,23.5c0,13,10.5,23.5,23.5,23.5h133
				c-10.3,0-18.6,6.4-18.6,14.2c0,7.9,8.3,14.2,18.6,14.2h43.8c13,0,23.5,10.5,23.5,23.5c0,13-10.5,23.5-23.5,23.5H516.7
				c-13,0-23.5,10.5-23.5,23.5c0,13,10.5,23.5,23.5,23.5h102.7c-10.3,0-18.6,6.4-18.6,14.2c0,7.9,8.3,14.2,18.6,14.2H468.2
				c-10.3,0-18.6,6.4-18.6,14.2c0,7.9,8.3,14.2,18.6,14.2H655c4.5,0,8.1,2.8,8.1,6.2s-3.6,6.2-8.1,6.2H523.6
				c-13,0-23.5,10.5-23.5,23.5c0,13,10.5,23.5,23.5,23.5h66c-10.3,0-18.6,6.4-18.6,14.2c0,7.9,8.3,14.2,18.6,14.2h30.6v0.3h1194.2
				v-0.3h101.6c10.3,0,18.6-6.4,18.6-14.2c0-7.9-8.3-14.2-18.6-14.2h61.2c13,0,23.5-10.5,23.5-23.5
				C2000.6,277.9,1990,267.3,1977.1,267.3z"/>
			
				<linearGradient id="SVGID_4_" gradientUnits="userSpaceOnUse" x1="1798.655" y1="429.6078" x2="3148.6299" y2="-920.3671" gradientTransform="matrix(1 0 0 1 -1597.1052 0)">
				<stop  offset="0" style="stop-color:#2980B9"/>
				<stop  offset="1" style="stop-color:#6DD5FA"/>
			</linearGradient>
			<circle class="st1" cx="456.6" cy="174.5" r="23.5"/>
			
				<linearGradient id="SVGID_5_" gradientUnits="userSpaceOnUse" x1="1732.7025" y1="429.6078" x2="3082.6772" y2="-920.3671" gradientTransform="matrix(1 0 0 1 -1597.1052 0)">
				<stop  offset="0" style="stop-color:#2980B9"/>
				<stop  offset="1" style="stop-color:#6DD5FA"/>
			</linearGradient>
			<circle class="st2" cx="390.7" cy="174.5" r="23.5"/>
			
				<linearGradient id="SVGID_6_" gradientUnits="userSpaceOnUse" x1="2648.3174" y1="1279.2701" x2="3998.2922" y2="-70.7046" gradientTransform="matrix(1 0 0 1 -1597.1052 0)">
				<stop  offset="0" style="stop-color:#2980B9"/>
				<stop  offset="1" style="stop-color:#6DD5FA"/>
			</linearGradient>
			<circle class="st3" cx="2039.7" cy="290.8" r="23.5"/>
			
				<linearGradient id="SVGID_7_" gradientUnits="userSpaceOnUse" x1="2679.6636" y1="1310.6162" x2="4029.6384" y2="-39.3586" gradientTransform="matrix(1 0 0 1 -1597.1052 0)">
				<stop  offset="0" style="stop-color:#2980B9"/>
				<stop  offset="1" style="stop-color:#6DD5FA"/>
			</linearGradient>
			<circle class="st4" cx="2102.4" cy="290.8" r="23.5"/>
			
				<linearGradient id="SVGID_8_" gradientUnits="userSpaceOnUse" x1="2574.3911" y1="1205.344" x2="3924.366" y2="-144.6309" gradientTransform="matrix(1 0 0 1 -1597.1052 0)">
				<stop  offset="0" style="stop-color:#2980B9"/>
				<stop  offset="1" style="stop-color:#6DD5FA"/>
			</linearGradient>
			<circle class="st5" cx="2080.2" cy="102.4" r="14.1"/>
			
				<linearGradient id="SVGID_9_" gradientUnits="userSpaceOnUse" x1="2546.6467" y1="1177.5994" x2="3896.6216" y2="-172.3754" gradientTransform="matrix(1 0 0 1 -1597.1052 0)">
				<stop  offset="0" style="stop-color:#2980B9"/>
				<stop  offset="1" style="stop-color:#6DD5FA"/>
			</linearGradient>
			<path class="st6" d="M2054,102.2c0-7.9-6.4-14.2-14.2-14.2h-29.7c-7.9,0-14.2,6.4-14.2,14.2s6.4,14.2,14.2,14.2h29.7
				C2047.7,116.5,2054,110.1,2054,102.2z"/>
			
				<linearGradient id="SVGID_10_" gradientUnits="userSpaceOnUse" x1="1843.8058" y1="474.7585" x2="3193.7805" y2="-875.2163" gradientTransform="matrix(1 0 0 1 -1597.1052 0)">
				<stop  offset="0" style="stop-color:#2980B9"/>
				<stop  offset="1" style="stop-color:#6DD5FA"/>
			</linearGradient>
			<path class="st7" d="M455.3,267.2h-49.2c-13,0-23.6,10.6-23.6,23.6c0,13,10.6,23.6,23.6,23.6h49.2c13,0,23.6-10.6,23.6-23.6
				C478.9,277.7,468.4,267.2,455.3,267.2z"/>
			
				<linearGradient id="SVGID_11_" gradientUnits="userSpaceOnUse" x1="1779.8749" y1="236.5584" x2="3129.8496" y2="-1113.4165" gradientTransform="matrix(1 0 0 1 -1597.1052 0)">
				<stop  offset="0" style="stop-color:#2980B9"/>
				<stop  offset="1" style="stop-color:#6DD5FA"/>
			</linearGradient>
			<path class="st8" d="M391.4,29h-49.2c-13,0-23.6,10.6-23.6,23.6c0,13,10.6,23.6,23.6,23.6h49.2c13,0,23.6-10.6,23.6-23.6
				C415,39.5,404.4,29,391.4,29z"/>
		</g>
	</g>
	<g>
		<g>
			
				<linearGradient id="SVGID_12_" gradientUnits="userSpaceOnUse" x1="1949.3798" y1="808.1425" x2="3299.3545" y2="-541.8324" gradientTransform="matrix(1 0 0 1 -1687.8821 0)">
				<stop  offset="0" style="stop-color:#2980B9"/>
				<stop  offset="1" style="stop-color:#6DD5FA"/>
			</linearGradient>
			<path class="st9" d="M1658.5,267.3h-133c10.3,0,18.6-6.4,18.6-14.2c0-7.9-8.3-14.2-18.6-14.2h-49.3c-13,0-23.5-10.5-23.5-23.5
				c0-13,10.5-23.5,23.5-23.5h122.2c13,0,23.5-10.5,23.5-23.5c0-13-10.5-23.5-23.5-23.5h-102.6c10.3,0,18.6-6.4,18.6-14.2
				c0-7.9-8.3-14.2-18.6-14.2h151.1c10.3,0,18.6-6.4,18.6-14.2c0-7.9-8.3-14.2-18.6-14.2H1460c-4.5,0-8.1-2.8-8.1-6.2
				s3.6-6.2,8.1-6.2h131.4c13,0,23.5-10.5,23.5-23.5c0-13-10.5-23.5-23.5-23.5h-66c10.3,0,18.6-6.4,18.6-14.2S1535.7,0,1525.4,0
				L199.2,0c-10.3,0-18.6,6.4-18.6,14.2s8.3,14.2,18.6,14.2H138c-13,0-23.5,10.5-23.5,23.5c0,13,10.5,23.5,23.5,23.5h133
				c-10.3,0-18.6,6.4-18.6,14.2c0,7.9,8.3,14.2,18.6,14.2h43.8c13,0,23.5,10.5,23.5,23.5c0,13-10.5,23.5-23.5,23.5H198.1
				c-13,0-23.5,10.5-23.5,23.5c0,13,10.5,23.5,23.5,23.5h102.7c-10.3,0-18.6,6.4-18.6,14.2c0,7.9,8.3,14.2,18.6,14.2H149.6
				c-10.3,0-18.6,6.4-18.6,14.2c0,7.9,8.3,14.2,18.6,14.2h186.8c4.5,0,8.1,2.8,8.1,6.2s-3.6,6.2-8.1,6.2H205
				c-13,0-23.5,10.5-23.5,23.5c0,13,10.5,23.5,23.5,23.5h66c-10.3,0-18.6,6.4-18.6,14.2c0,7.9,8.3,14.2,18.6,14.2h30.6v0.3h1194.2
				v-0.3h101.6c10.3,0,18.6-6.4,18.6-14.2c0-7.9-8.3-14.2-18.6-14.2h61.2c13,0,23.5-10.5,23.5-23.5
				C1682,277.9,1671.4,267.3,1658.5,267.3z"/>
			
				<linearGradient id="SVGID_13_" gradientUnits="userSpaceOnUse" x1="1570.8451" y1="429.6078" x2="2920.8198" y2="-920.3671" gradientTransform="matrix(1 0 0 1 -1687.8821 0)">
				<stop  offset="0" style="stop-color:#2980B9"/>
				<stop  offset="1" style="stop-color:#6DD5FA"/>
			</linearGradient>
			<circle class="st10" cx="138" cy="174.5" r="23.5"/>
			
				<linearGradient id="SVGID_14_" gradientUnits="userSpaceOnUse" x1="1504.8926" y1="429.6078" x2="2854.8674" y2="-920.3671" gradientTransform="matrix(1 0 0 1 -1687.8821 0)">
				<stop  offset="0" style="stop-color:#2980B9"/>
				<stop  offset="1" style="stop-color:#6DD5FA"/>
			</linearGradient>
			<circle class="st11" cx="72.1" cy="174.5" r="23.5"/>
			
				<linearGradient id="SVGID_15_" gradientUnits="userSpaceOnUse" x1="2420.5076" y1="1279.2701" x2="3770.4824" y2="-70.7046" gradientTransform="matrix(1 0 0 1 -1687.8821 0)">
				<stop  offset="0" style="stop-color:#2980B9"/>
				<stop  offset="1" style="stop-color:#6DD5FA"/>
			</linearGradient>
			<circle class="st12" cx="1721.1" cy="290.8" r="23.5"/>
			
				<linearGradient id="SVGID_16_" gradientUnits="userSpaceOnUse" x1="2451.8535" y1="1310.6162" x2="3801.8284" y2="-39.3586" gradientTransform="matrix(1 0 0 1 -1687.8821 0)">
				<stop  offset="0" style="stop-color:#2980B9"/>
				<stop  offset="1" style="stop-color:#6DD5FA"/>
			</linearGradient>
			<circle class="st13" cx="1783.8" cy="290.8" r="23.5"/>
			
				<linearGradient id="SVGID_17_" gradientUnits="userSpaceOnUse" x1="2346.5813" y1="1205.344" x2="3696.5562" y2="-144.6309" gradientTransform="matrix(1 0 0 1 -1687.8821 0)">
				<stop  offset="0" style="stop-color:#2980B9"/>
				<stop  offset="1" style="stop-color:#6DD5FA"/>
			</linearGradient>
			<circle class="st14" cx="1761.6" cy="102.4" r="14.1"/>
			
				<linearGradient id="SVGID_18_" gradientUnits="userSpaceOnUse" x1="2318.8367" y1="1177.5994" x2="3668.8115" y2="-172.3754" gradientTransform="matrix(1 0 0 1 -1687.8821 0)">
				<stop  offset="0" style="stop-color:#2980B9"/>
				<stop  offset="1" style="stop-color:#6DD5FA"/>
			</linearGradient>
			<path class="st15" d="M1735.5,102.2c0-7.9-6.4-14.2-14.2-14.2h-29.7c-7.9,0-14.2,6.4-14.2,14.2s6.4,14.2,14.2,14.2h29.7
				C1729.1,116.5,1735.5,110.1,1735.5,102.2z"/>
			
				<linearGradient id="SVGID_19_" gradientUnits="userSpaceOnUse" x1="1615.9958" y1="474.7585" x2="2965.9707" y2="-875.2163" gradientTransform="matrix(1 0 0 1 -1687.8821 0)">
				<stop  offset="0" style="stop-color:#2980B9"/>
				<stop  offset="1" style="stop-color:#6DD5FA"/>
			</linearGradient>
			<path class="st16" d="M136.7,267.2H87.5c-13,0-23.6,10.6-23.6,23.6c0,13,10.6,23.6,23.6,23.6h49.2c13,0,23.6-10.6,23.6-23.6
				C160.3,277.7,149.8,267.2,136.7,267.2z"/>
			
				<linearGradient id="SVGID_20_" gradientUnits="userSpaceOnUse" x1="1552.0649" y1="236.5584" x2="2902.0398" y2="-1113.4165" gradientTransform="matrix(1 0 0 1 -1687.8821 0)">
				<stop  offset="0" style="stop-color:#2980B9"/>
				<stop  offset="1" style="stop-color:#6DD5FA"/>
			</linearGradient>
			<path class="st17" d="M72.8,29H23.6C10.6,29,0,39.5,0,52.5c0,13,10.6,23.6,23.6,23.6h49.2c13,0,23.6-10.6,23.6-23.6
				C96.4,39.5,85.8,29,72.8,29z"/>
		</g>
	</g>
	<g>
		<g>
			
				<linearGradient id="SVGID_21_" gradientUnits="userSpaceOnUse" x1="-1565.6827" y1="2362.0989" x2="-215.7079" y2="1012.1241" gradientTransform="matrix(-1 0 0 -1 131.7196 1897.125)">
				<stop  offset="1.614687e-07" style="stop-color:#6DD5FA"/>
				<stop  offset="1" style="stop-color:#2980B9"/>
			</linearGradient>
			<path class="st18" d="M300.4,75.8h133c-10.3,0-18.6,6.4-18.6,14.2c0,7.9,8.3,14.2,18.6,14.2h49.3c13,0,23.5,10.5,23.5,23.5
				c0,13-10.5,23.5-23.5,23.5H360.5c-13,0-23.5,10.5-23.5,23.5c0,13,10.5,23.5,23.5,23.5h102.6c-10.3,0-18.6,6.4-18.6,14.2
				c0,7.9,8.3,14.2,18.6,14.2H312c-10.3,0-18.6,6.4-18.6,14.2c0,7.9,8.3,14.2,18.6,14.2h186.8c4.5,0,8.1,2.8,8.1,6.2
				s-3.6,6.2-8.1,6.2H367.4c-13,0-23.5,10.5-23.5,23.5c0,13,10.5,23.5,23.5,23.5h66c-10.3,0-18.6,6.4-18.6,14.2s8.3,14.2,18.6,14.2
				h1326.3c10.3,0,18.6-6.4,18.6-14.2s-8.3-14.2-18.6-14.2h61.2c13,0,23.5-10.5,23.5-23.5c0-13-10.5-23.5-23.5-23.5h-133
				c10.3,0,18.6-6.4,18.6-14.2c0-7.9-8.3-14.2-18.6-14.2h-43.8c-13,0-23.5-10.5-23.5-23.5c0-13,10.5-23.5,23.5-23.5h116.8
				c13,0,23.5-10.5,23.5-23.5c0-13-10.5-23.5-23.5-23.5h-102.7c10.3,0,18.6-6.4,18.6-14.2c0-7.9-8.3-14.2-18.6-14.2h151.1
				c10.3,0,18.6-6.4,18.6-14.2c0-7.9-8.3-14.2-18.6-14.2h-186.8c-4.5,0-8.1-2.8-8.1-6.2c0-3.4,3.6-6.2,8.1-6.2h131.4
				c13,0,23.5-10.5,23.5-23.5c0-13-10.5-23.5-23.5-23.5h-66c10.3,0,18.6-6.4,18.6-14.2c0-7.9-8.3-14.2-18.6-14.2h-30.6V0H463.2v0.3
				H361.6c-10.3,0-18.6,6.4-18.6,14.2c0,7.9,8.3,14.2,18.6,14.2h-61.2c-13,0-23.5,10.5-23.5,23.5C276.9,65.3,287.5,75.8,300.4,75.8z
				"/>
			
				<linearGradient id="SVGID_22_" gradientUnits="userSpaceOnUse" x1="-1944.2174" y1="1983.5642" x2="-594.2426" y2="633.5894" gradientTransform="matrix(-1 0 0 -1 131.7196 1897.125)">
				<stop  offset="1.614687e-07" style="stop-color:#6DD5FA"/>
				<stop  offset="1" style="stop-color:#2980B9"/>
			</linearGradient>
			<circle class="st19" cx="1820.9" cy="168.6" r="23.5"/>
			
				<linearGradient id="SVGID_23_" gradientUnits="userSpaceOnUse" x1="-2010.17" y1="1983.5642" x2="-660.1952" y2="633.5894" gradientTransform="matrix(-1 0 0 -1 131.7196 1897.125)">
				<stop  offset="1.614687e-07" style="stop-color:#6DD5FA"/>
				<stop  offset="1" style="stop-color:#2980B9"/>
			</linearGradient>
			<circle class="st20" cx="1886.8" cy="168.6" r="23.5"/>
			
				<linearGradient id="SVGID_24_" gradientUnits="userSpaceOnUse" x1="-1094.5551" y1="2833.2266" x2="255.4198" y2="1483.2518" gradientTransform="matrix(-1 0 0 -1 131.7196 1897.125)">
				<stop  offset="1.614687e-07" style="stop-color:#6DD5FA"/>
				<stop  offset="1" style="stop-color:#2980B9"/>
			</linearGradient>
			<circle class="st21" cx="237.8" cy="52.4" r="23.5"/>
			
				<linearGradient id="SVGID_25_" gradientUnits="userSpaceOnUse" x1="-1063.209" y1="2864.5728" x2="286.7659" y2="1514.5979" gradientTransform="matrix(-1 0 0 -1 131.7196 1897.125)">
				<stop  offset="1.614687e-07" style="stop-color:#6DD5FA"/>
				<stop  offset="1" style="stop-color:#2980B9"/>
			</linearGradient>
			<circle class="st22" cx="175.1" cy="52.4" r="23.5"/>
			
				<linearGradient id="SVGID_26_" gradientUnits="userSpaceOnUse" x1="-1168.4812" y1="2759.3003" x2="181.4936" y2="1409.3256" gradientTransform="matrix(-1 0 0 -1 131.7196 1897.125)">
				<stop  offset="1.614687e-07" style="stop-color:#6DD5FA"/>
				<stop  offset="1" style="stop-color:#2980B9"/>
			</linearGradient>
			<circle class="st23" cx="197.3" cy="240.7" r="14.1"/>
			
				<linearGradient id="SVGID_27_" gradientUnits="userSpaceOnUse" x1="-1196.2258" y1="2731.5559" x2="153.749" y2="1381.5811" gradientTransform="matrix(-1 0 0 -1 131.7196 1897.125)">
				<stop  offset="1.614687e-07" style="stop-color:#6DD5FA"/>
				<stop  offset="1" style="stop-color:#2980B9"/>
			</linearGradient>
			<path class="st24" d="M223.4,241c0,7.9,6.4,14.2,14.2,14.2h29.7c7.9,0,14.2-6.4,14.2-14.2s-6.4-14.2-14.2-14.2h-29.7
				C229.8,226.7,223.4,233.1,223.4,241z"/>
			
				<linearGradient id="SVGID_28_" gradientUnits="userSpaceOnUse" x1="-1899.0667" y1="2028.715" x2="-549.0919" y2="678.7402" gradientTransform="matrix(-1 0 0 -1 131.7196 1897.125)">
				<stop  offset="1.614687e-07" style="stop-color:#6DD5FA"/>
				<stop  offset="1" style="stop-color:#2980B9"/>
			</linearGradient>
			<path class="st25" d="M1822.2,76h49.2c13,0,23.6-10.6,23.6-23.6c0-13-10.6-23.6-23.6-23.6h-49.2c-13,0-23.6,10.6-23.6,23.6
				C1798.6,65.5,1809.1,76,1822.2,76z"/>
			
				<linearGradient id="SVGID_29_" gradientUnits="userSpaceOnUse" x1="-1962.9976" y1="1790.5148" x2="-613.0228" y2="440.54" gradientTransform="matrix(-1 0 0 -1 131.7196 1897.125)">
				<stop  offset="1.614687e-07" style="stop-color:#6DD5FA"/>
				<stop  offset="1" style="stop-color:#2980B9"/>
			</linearGradient>
			<path class="st26" d="M1886.1,314.2h49.2c13,0,23.6-10.6,23.6-23.6c0-13-10.6-23.6-23.6-23.6h-49.2c-13,0-23.6,10.6-23.6,23.6
				C1862.5,303.7,1873.1,314.2,1886.1,314.2z"/>
		</g>
	</g>
</g>
</svg>
