<?xml version="1.0" encoding="utf-8"?>
<!-- Generator: Adobe Illustrator 22.1.0, SVG Export Plug-In . SVG Version: 6.00 Build 0)  -->
<svg version="1.1" id="Capa_1" xmlns="http://www.w3.org/2000/svg" xmlns:xlink="http://www.w3.org/1999/xlink" x="0px" y="0px"
	 viewBox="0 0 448.9 444.8" style="enable-background:new 0 0 448.9 444.8;" xml:space="preserve">
<style type="text/css">
	.st0{fill:url(#SVGID_1_);}
</style>
<linearGradient id="SVGID_1_" gradientUnits="userSpaceOnUse" x1="486.8096" y1="-62.0523" x2="-52.5362" y2="524.3294">
	<stop  offset="1.059638e-07" style="stop-color:#2196F3"/>
	<stop  offset="1" style="stop-color:#F44336"/>
</linearGradient>
<path class="st0" d="M262.4,186.8l154,154c20.7-34,32.6-73.8,32.6-116.5c0-111.1-80.8-203.4-186.8-221.3l61.4,61.4
	c3.4,3.4,4,8.1,1.4,10.7c-2.6,2.6-7.4,1.9-10.7-1.4L240.9,0.5c-2.9-0.2-5.8-0.4-8.8-0.5l64.4,64.4c3.4,3.4,4,8.1,1.4,10.7
	c-2.6,2.6-7.4,1.9-10.7-1.4L213.7,0.1C94.7,5.7,0,103.9,0,224.3c0,102.8,69.1,189.4,163.3,216l-28.4-28.4
	c-13.7-13.7-13.7-35.8,0-49.5c13.7-13.7,35.8-13.7,49.5,0l82.3,82.3c7.6-1.5,15.1-3.3,22.4-5.5L79.7,229.9
	c-13.7-13.7-13.7-35.8,0-49.5c13.7-13.7,35.8-13.7,49.5,0l226.2,226.2c5.4-3.9,10.6-8,15.6-12.3L212.9,236.2
	c-13.7-13.7-13.7-35.8,0-49.5C226.6,173.1,248.7,173.1,262.4,186.8z M315.9,87.5c3.2,0,5.9,2.6,5.9,5.9c0,3.2-2.6,5.9-5.9,5.9
	c-3.2,0-5.9-2.6-5.9-5.9C310,90.1,312.6,87.5,315.9,87.5z M304.3,75.9c3.2,0,5.9,2.6,5.9,5.9c0,3.2-2.6,5.9-5.9,5.9
	c-3.2,0-5.9-2.6-5.9-5.9C298.4,78.5,301,75.9,304.3,75.9z M97.9,292.9c18.5,0,33.5,15,33.5,33.5c0,18.5-15,33.5-33.5,33.5
	s-33.5-15-33.5-33.5C64.4,307.9,79.4,292.9,97.9,292.9z"/>
</svg>
